<svg xmlns="http://www.w3.org/2000/svg" width="200" height="200" viewBox="0 0 200 200">
  <path fill-rule="evenodd" d="M49.390625,176.050781 L66.578125,75.7578125 L49,75.7578125 L49.6835938,70.3867188 L67.6523438,70.3867188 L70.09375,55.3476562 C71.8515713,45.7772959 75.5299199,38.1927363 81.1289062,32.59375 C86.7278926,26.9947637 93.7265205,24.130209 102.125,24 C106.226583,24 110.328104,24.5859316 114.429688,25.7578125 L112.964844,30.640625 C108.863261,29.5989531 105.250016,29.1432285 102.125,29.2734375 C95.2890283,29.4036465 89.4948154,31.8613042 84.7421875,36.6464844 C79.9895596,41.4316646 76.8645908,47.9908438 75.3671875,56.3242188 L72.828125,70.3867188 L99.8789062,70.3867188 L99.0976562,75.7578125 L71.9492188,75.7578125 L54.6640625,176.050781 L49.390625,176.050781 Z M100.038936,89 L100.546748,90.7578125 C97.3696492,92.8151145 94.4139496,95.7252416 91.679561,99.4882812 C88.9451723,103.251321 86.5754043,107.756484 84.570186,113.003906 C82.5649676,118.251328 81.1066488,123.700493 80.195186,129.351562 L79.9998735,130.367188 C79.3227867,134.89846 79.0233106,139.351541 79.101436,143.726562 C79.1535196,149.664092 79.9803342,154.820291 81.5819047,159.195312 C83.1834752,163.570334 85.4425672,166.877593 88.3592485,169.117188 L87.4217485,170.71875 C84.1665238,168.270821 81.6600385,164.833355 79.9022172,160.40625 C78.1443959,155.979145 77.1873742,150.653677 77.0311235,144.429688 C76.8488309,138.205698 77.4673143,131.727898 78.8865922,124.996094 C80.3058701,118.264289 82.395693,112.085966 85.1561235,106.460938 C89.1144766,98.3879805 94.0753645,92.5677262 100.038936,89 Z M114.218623,128.84375 L130.234248,110.171875 L132.929561,110.210938 L115.273311,130.875 L127.109248,152.398438 L124.609248,152.398438 L113.827998,132.59375 L96.8748735,152.398438 L94.179561,152.398438 L112.773311,130.5625 L101.523311,110.09375 L104.062373,110.09375 L114.218623,128.84375 Z M128.554561,170.757812 L128.046748,169 C133.072815,165.692692 137.376158,160.549514 140.956905,153.570312 C144.537652,146.591111 147.018096,138.856813 148.398311,130.367188 L148.593623,129.351562 C149.27071,124.82029 149.583207,120.367209 149.531123,115.992188 C149.400914,109.846323 148.541548,104.644553 146.952998,100.386719 C145.364449,96.128885 143.124888,92.8802195 140.234248,90.640625 L141.171748,89.0390625 C144.296764,91.3828242 146.757677,94.8072691 148.554561,99.3125 C150.351445,103.817731 151.341018,109.182261 151.523311,115.40625 C151.757687,122.776079 150.89181,130.386679 148.925655,138.238281 C146.959499,146.089883 144.225151,152.795545 140.72253,158.355469 C137.219908,163.915392 133.163959,168.049466 128.554561,170.757812 Z"/>
</svg>
