<svg xmlns="http://www.w3.org/2000/svg" xmlns:xlink="http://www.w3.org/1999/xlink" width="200" height="200" viewBox="0 0 200 200">
  <defs>
    <path id="raje-link24pt-a" d="M109.958645,108.929626 L116.095577,102.792694 L118.357125,105.054242 C121.481319,108.178437 126.546639,108.178437 129.670833,105.054242 L161.630988,73.0940872 C164.755183,69.9698928 164.755183,64.904573 161.630988,61.7803787 L161.630988,61.7803787 L144.851028,45.0004184 L144.851028,45.0004184 C141.726834,41.8762241 136.661514,41.8762241 133.53732,45.0004184 L101.577164,76.9605735 C98.4529701,80.0847679 98.4529701,85.1500877 101.577164,88.274282 L104.145829,90.8429468 L98.0088975,96.9798786 L89.8033009,88.774282 C86.6791065,85.6500877 86.6791065,80.5847679 89.8033009,77.4605735 L133.920729,33.3431458 C137.044923,30.2189514 142.110243,30.2189514 145.234437,33.3431458 L145.234437,33.3431458 L173.514397,61.623106 C176.638592,64.7473003 176.638592,69.8126202 173.514397,72.9368145 L129.39697,117.054242 C126.272775,120.178437 121.207455,120.178437 118.083261,117.054242 L109.958645,108.929626 Z M90.8817383,104.107038 L84.8613974,110.127379 L82.390873,107.656854 C79.2666786,104.53266 74.2013588,104.53266 71.0771645,107.656854 L39.1170094,139.617009 C35.992815,142.741204 35.992815,147.806524 39.1170094,150.930718 L55.8969696,167.710678 C59.021164,170.834872 64.0864838,170.834872 67.2106781,167.710678 L67.2106781,167.710678 L99.1708332,135.750523 C102.295028,132.626329 102.295028,127.561009 99.1708332,124.436815 L96.8111449,122.077126 L102.831486,116.056785 L111.054242,124.279542 C114.178437,127.403736 114.178437,132.469056 111.054242,135.59325 L66.9368145,179.710678 L66.9368145,179.710678 C63.8126202,182.834872 58.7473003,182.834872 55.623106,179.710678 L27.3431458,151.430718 L27.3431458,151.430718 C24.2189514,148.306524 24.2189514,143.241204 27.3431458,140.117009 L71.4605735,95.9995816 C74.5847679,92.8753873 79.6500877,92.8753873 82.774282,95.9995816 L90.8817383,104.107038 Z M117.305087,83 L124.376154,90.0710678 L84.0710678,130.376154 L77,123.305087 L117.305087,83 Z"/>
  </defs>
  <g fill="none" fill-rule="evenodd">
    <use fill="#000" xlink:href="#raje-link24pt-a"/>
    <path stroke="#000" d="M110.665752,108.929626 L118.436815,116.700689 C121.365747,119.629621 126.114484,119.629621 129.043416,116.700689 L173.160844,72.5832611 C176.089776,69.6543289 176.089776,64.9055916 173.160844,61.9766594 L144.880884,33.6966991 C141.951952,30.767767 137.203214,30.767767 134.274282,33.6966991 L90.1568542,77.8141269 C87.2279221,80.7430591 87.2279221,85.4917964 90.1568542,88.4207286 L98.0088975,96.2727719 L103.438723,90.8429468 L101.223611,88.6278354 C97.9041546,85.3083789 97.9041546,79.9264766 101.223611,76.6070201 L133.183766,44.646865 C136.503223,41.3274085 141.885125,41.3274085 145.204581,44.646865 L161.984542,61.4268253 C165.303998,64.7462818 165.303998,70.1281841 161.984542,73.4476406 L130.024387,105.407796 C126.70493,108.727252 121.323028,108.727252 118.003571,105.407796 L116.095577,103.499801 L110.665752,108.929626 Z M90.1746315,104.107038 L82.4207286,96.353135 C79.4917964,93.4242028 74.7430591,93.4242028 71.8141269,96.353135 L27.6966991,140.470563 C24.767767,143.399495 24.767767,148.148232 27.6966991,151.077164 L55.9766594,179.357125 C58.9055916,182.286057 63.6543289,182.286057 66.5832611,179.357125 L110.700689,135.239697 C113.629621,132.310765 113.629621,127.562027 110.700689,124.633095 L102.831486,116.763892 L97.5182517,122.077126 L99.5243866,124.083261 C102.843843,127.402718 102.843843,132.78462 99.5243866,136.104076 L67.5642315,168.064232 C64.244775,171.383688 58.8628727,171.383688 55.5434162,168.064232 L38.763456,151.284271 C35.4439995,147.964815 35.4439995,142.582912 38.763456,139.263456 L70.7236111,107.303301 C74.0430676,103.983844 79.4249699,103.983844 82.7444264,107.303301 L84.8613974,109.420272 L90.1746315,104.107038 Z M117.305087,83.7071068 L77.7071068,123.305087 L84.0710678,129.669048 L123.669048,90.0710678 L117.305087,83.7071068 Z"/>
  </g>
</svg>
