<svg xmlns="http://www.w3.org/2000/svg" width="200" height="200" viewBox="0 0 200 200">
  <path fill-rule="evenodd" d="M69.6748047,174.267578 C61.8622656,171.82616 56.0151561,167.846707 52.1333008,162.329102 C48.2514454,156.811496 46.3105469,149.536178 46.3105469,140.50293 L46.3105469,122.851562 C46.3105469,109.081962 40.2070923,102.197266 28,102.197266 L28,97.3632812 C40.2070923,97.3632812 46.3105469,90.5274121 46.3105469,76.8554688 L46.3105469,58.7646484 C46.3593752,49.7314001 48.3246876,42.4560823 52.206543,36.9384766 C56.0883983,31.4208708 61.911094,27.4414185 69.6748047,25 L70.7734375,28.2958984 C57.1014941,32.73928 50.265625,43.1639805 50.265625,59.5703125 L50.265625,76.2695312 C50.265625,89.5508477 45.1143093,97.3876833 34.8115234,99.7802734 C45.1143093,102.368177 50.265625,110.205013 50.265625,123.291016 L50.265625,140.063477 C50.265625,155.932697 57.2235632,166.210914 71.1396484,170.898438 L69.6748047,174.267578 Z M78.390625,151.123047 L74.0693359,151.123047 L118.600586,35.3271484 L122.921875,35.3271484 L78.390625,151.123047 Z M128.268555,170.898438 C142.135812,166.162086 149.069336,155.981523 149.069336,140.356445 L149.069336,123.291016 C149.069336,110.205013 154.220652,102.368177 164.523438,99.7802734 C154.220652,97.3876833 149.069336,89.5508477 149.069336,76.2695312 L149.069336,59.6435547 C149.069336,43.1395659 142.257881,32.6904517 128.634766,28.2958984 L129.660156,25 C137.472695,27.4414185 143.295391,31.4086639 147.128418,36.9018555 C150.961445,42.395047 152.926757,49.5605027 153.024414,58.3984375 L153.024414,76.6357422 C153.024414,90.4541707 159.127869,97.3632812 171.334961,97.3632812 L171.334961,102.197266 C159.127869,102.197266 153.024414,109.155204 153.024414,123.071289 L153.024414,140.429688 C153.024414,149.511764 151.107929,156.799289 147.274902,162.29248 C143.441875,167.785672 137.570352,171.777331 129.660156,174.267578 L128.268555,170.898438 Z"/>
</svg>
