<svg xmlns="http://www.w3.org/2000/svg" width="200" height="200" viewBox="0 0 200 200">
  <path fill-rule="evenodd" d="M50.3515625,24 L53.9648438,27.125 C48.3658574,34.1562852 45.468751,41.7733965 45.2734375,49.9765625 L45.2734375,61.6953125 L40,61.6953125 L40,50.171875 C40.260418,39.8202607 43.7109043,31.0963896 50.3515625,24 Z M68.4179688,24 L72.03125,27.125 C66.4322637,34.1562852 63.5351572,41.7733965 63.3398438,49.9765625 L63.3398438,61.6953125 L58.0664062,61.6953125 L58.0664062,50.171875 C58.3268242,39.8202607 61.7773105,31.0963896 68.4179688,24 Z M102.792969,175.757812 L97.5195312,175.757812 L97.5195312,70.09375 L102.792969,70.09375 L102.792969,175.757812 Z M94.7851562,37.0859375 C94.7851562,35.5885342 95.3059844,34.3027397 96.3476562,33.2285156 C97.3893281,32.1542915 98.6588467,31.6171875 100.15625,31.6171875 C101.653653,31.6171875 102.939448,32.1542915 104.013672,33.2285156 C105.087896,34.3027397 105.625,35.5885342 105.625,37.0859375 C105.625,38.5833408 105.087896,39.8528594 104.013672,40.8945312 C102.939448,41.9362031 101.653653,42.4570312 100.15625,42.4570312 C98.6588467,42.4570312 97.3893281,41.9362031 96.3476562,40.8945312 C95.3059844,39.8528594 94.7851562,38.5833408 94.7851562,37.0859375 Z M131.796875,63.3554688 L128.183594,60.2304688 C133.457058,53.4596016 136.321612,46.4609736 136.777344,39.234375 L136.875,25.7578125 L142.148438,25.7578125 L142.148438,37.1835938 C141.88802,47.535208 138.437533,56.2590791 131.796875,63.3554688 Z M149.570312,63.3554688 L145.957031,60.2304688 C151.230495,53.4596016 154.09505,46.4609736 154.550781,39.234375 L154.648438,25.7578125 L159.921875,25.7578125 L159.921875,37.1835938 C159.661457,47.535208 156.210971,56.2590791 149.570312,63.3554688 Z"/>
</svg>
