<svg xmlns="http://www.w3.org/2000/svg" width="200" height="200" viewBox="0 0 200 200">
  <path fill-rule="evenodd" d="M49,171.1875 L49,29 L97.7304688,29 C113.811278,29 126.050739,32.222624 134.449219,38.6679688 C142.847698,45.1133135 147.046875,54.716082 147.046875,67.4765625 C147.046875,73.9870117 145.28908,79.8463281 141.773438,85.0546875 C138.257795,90.2630469 133.114617,94.2994648 126.34375,97.1640625 C134.02608,99.2474062 139.966776,103.169893 144.166016,108.931641 C148.365255,114.693388 150.464844,121.610637 150.464844,129.683594 C150.464844,143.030015 146.184288,153.283818 137.623047,160.445312 C129.061806,167.606807 116.806069,171.1875 100.855469,171.1875 L49,171.1875 Z M73.7070312,107.027344 L73.7070312,151.460938 L101.148438,151.460938 C108.895872,151.460938 114.950499,149.540384 119.3125,145.699219 C123.674501,141.858054 125.855469,136.519565 125.855469,129.683594 C125.855469,114.904874 118.303461,107.352866 103.199219,107.027344 L73.7070312,107.027344 Z M73.7070312,88.8632812 L97.9257812,88.8632812 C105.608111,88.8632812 111.613911,87.1217622 115.943359,83.6386719 C120.272808,80.1555815 122.4375,75.2239902 122.4375,68.84375 C122.4375,61.8124648 120.435567,56.7343906 116.431641,53.609375 C112.427714,50.4843594 106.194053,48.921875 97.7304688,48.921875 L73.7070312,48.921875 L73.7070312,88.8632812 Z"/>
</svg>
